<svg viewBox="0 0 1024 1024" version="1.1" xmlns="http://www.w3.org/2000/svg" width="256" height="256">
    <path d="M942.933333 132.266667l-168.533333-10.666667v64l164.266667 10.666667c8.533333 0 12.8 4.266667 14.933333 6.4 2.133333 2.133333 6.4 8.533333 4.266667 14.933333l-46.933334 718.933333c0 10.666667-10.666667 19.2-21.333333 19.2h-2.133333l-115.2-8.533333c-4.266667 21.333333-23.466667 36.266667-46.933334 36.266667H362.666667l522.666666 34.133333h6.4c44.8 0 81.066667-34.133333 85.333334-78.933333L1024 219.733333c2.133333-44.8-34.133333-85.333333-81.066667-87.466666z" fill="#adbac7" p-id="4159"></path>
    <path d="M727.466667 74.666667c6.4 0 10.666667 4.266667 10.666666 10.666666v853.333334c0 6.4-4.266667 10.666667-10.666666 10.666666h-640c-6.4 0-10.666667-4.266667-10.666667-10.666666V85.333333c0-6.4 4.266667-10.666667 10.666667-10.666666h640m0-74.666667h-640c-46.933333 0-85.333333 38.4-85.333334 85.333333v853.333334c0 46.933333 38.4 85.333333 85.333334 85.333333h640c46.933333 0 85.333333-38.4 85.333333-85.333333V85.333333c0-46.933333-38.4-85.333333-85.333333-85.333333z" fill="#adbac7" p-id="4160"></path>
    <path d="M522.666667 518.4H177.066667c-21.333333 0-36.266667-17.066667-36.266667-36.266667 0-21.333333 17.066667-36.266667 36.266667-36.266666h345.6c21.333333 0 36.266667 17.066667 36.266666 36.266666 0 19.2-17.066667 36.266667-36.266666 36.266667z" fill="#00D26E" p-id="4161"></path>
    <path d="M424.533333 686.933333H177.066667c-21.333333 0-38.4 17.066667-38.4 38.4s17.066667 38.4 38.4 38.4h247.466666c21.333333 0 38.4-17.066667 38.4-38.4s-17.066667-38.4-38.4-38.4z" fill="#adbac7" p-id="4162"></path>
</svg>